<?xml version="1.0" standalone="no"?>
<!DOCTYPE svg PUBLIC "-//W3C//DTD SVG 20010904//EN"
 "http://www.w3.org/TR/2001/REC-SVG-20010904/DTD/svg10.dtd">
<svg version="1.0" xmlns="http://www.w3.org/2000/svg"
 width="128.000000pt" height="128.000000pt" viewBox="0 0 128.000000 128.000000"
 preserveAspectRatio="xMidYMid meet">
<metadata>
Created by potrace 1.11, written by Peter Selinger 2001-2013
</metadata>
<g transform="translate(0.000000,128.000000) scale(0.100000,-0.100000)"
fill="#000000" stroke="none">
<path d="M167 653 l2 -308 50 -3 49 -3 -3 136 -4 136 152 -3 152 -3 -3 -132
-3 -133 50 0 50 0 0 295 c1 162 2 301 3 307 2 9 -14 14 -49 16 l-53 3 0 -135
0 -136 -148 0 -148 0 3 135 4 135 -53 0 -53 0 2 -307z"/>
<path d="M824 650 l1 -310 158 0 c118 0 157 3 158 13 0 6 3 24 5 40 l5 27
-116 0 -116 0 3 270 4 270 -51 0 -51 0 0 -310z"/>
</g>
</svg>
